<?xml version="1.0" encoding="utf-8"?>
<!-- Generator: Adobe Illustrator 25.2.1, SVG Export Plug-In . SVG Version: 6.00 Build 0)  -->
<!DOCTYPE svg PUBLIC "-//W3C//DTD SVG 1.1//EN" "http://www.w3.org/Graphics/SVG/1.1/DTD/svg11.dtd" [
	<!ENTITY ns_extend "http://ns.adobe.com/Extensibility/1.0/">
	<!ENTITY ns_ai "http://ns.adobe.com/AdobeIllustrator/10.0/">
	<!ENTITY ns_graphs "http://ns.adobe.com/Graphs/1.0/">
	<!ENTITY ns_vars "http://ns.adobe.com/Variables/1.0/">
	<!ENTITY ns_imrep "http://ns.adobe.com/ImageReplacement/1.0/">
	<!ENTITY ns_sfw "http://ns.adobe.com/SaveForWeb/1.0/">
	<!ENTITY ns_custom "http://ns.adobe.com/GenericCustomNamespace/1.0/">
	<!ENTITY ns_adobe_xpath "http://ns.adobe.com/XPath/1.0/">
]>
<svg version="1.1" id="Layer_1" xmlns:x="&ns_extend;" xmlns:i="&ns_ai;" xmlns:graph="&ns_graphs;"
	 xmlns="http://www.w3.org/2000/svg" xmlns:xlink="http://www.w3.org/1999/xlink" x="0px" y="0px" viewBox="0 0 24 24"
	 style="enable-background:new 0 0 24 24;" xml:space="preserve">
<style type="text/css">
	.st0{fill:none;}
	.st1{fill:#DD1D44;}
</style>
<metadata>
	<sfw  xmlns="&ns_sfw;">
		<slices></slices>
		<sliceSourceBounds  bottomLeftOrigin="true" height="24" width="24" x="0" y="0"></sliceSourceBounds>
	</sfw>
</metadata>
<path class="st0" d="M0,0h24v24H0V0z"/>
<g>
	<path class="st1" d="M22.6,12.1c0.1-0.9,0.2-1.8-1-2.4c0.6-0.1,0.7-0.3,0.6-0.7s-0.4-0.2-0.7-0.2c-0.2,0-0.4,0-0.6,0
		c-0.5,0-0.7,0.2-0.6,0.7l0,0v0.1c-0.1,0-0.1,0-0.1-0.1l0,0l-2.8-2.7H6.3l-2,2C4.2,8.9,4.1,9,3.9,9.1c0,0.1-0.1,0.2-0.2,0.2l0,0
		L3.4,9.6c0-0.8,0-0.8-0.8-0.8c-0.2,0-0.4,0-0.6,0c-0.3,0-0.6-0.1-0.6,0.3c0,0.4,0.2,0.5,0.6,0.6c-1.1,0.5-1.1,1.5-1,2.4
		c0.1,0.5,0.1,0.9,0.1,1.4c-0.1,1.3-0.1,2.7,0.1,4c0.1,0.6,0.3,0.8,1,0.8c0.4,0,0.8,0,1.3,0c0.4,0,0.8,0.1,0.9-0.4
		c0-0.2,0.2-0.1,0.3-0.1c4.8,0,9.6,0,14.4,0c0.1,0,0.3-0.1,0.4,0.2c0.1,0.4,0.4,0.4,0.7,0.4c0.5,0,1,0,1.4,0c0.6,0,0.9-0.2,1-0.9
		c0.1-1.1,0.2-2.2,0.1-3.4C22.6,13.4,22.5,12.8,22.6,12.1z M6.5,7.4h10.9l2.5,2.4H4L6.5,7.4z M5.8,11.5c-0.1,0.3-0.1,0.7-0.2,1
		c-0.1,0.8,0,0.9-1.2,0.8c-1,0.1-1.9-0.3-2.5-1.2c-0.2-0.2-0.4-0.5-0.3-0.8C1.8,11,2.1,11,2.4,11c1.1-0.2,2.1,0,3.1,0.1
		C5.8,11.1,5.8,11.3,5.8,11.5z M15.1,16.5H8.8l-2-3.6h10.3L15.1,16.5z M21.8,12c-0.5,0.7-1.2,1.3-2.1,1.2c-0.3,0-0.6,0-0.8,0.1
		c-0.5,0.1-0.7-0.1-0.8-0.5c0-0.4-0.1-0.9-0.2-1.3c-0.1-0.3,0-0.4,0.3-0.5c1.1-0.1,2.1-0.3,3.2-0.1C22.1,11.1,22.3,11.4,21.8,12z"/>
</g>
</svg>
