<?xml version="1.0" encoding="utf-8"?>
<!-- Generator: Adobe Illustrator 25.2.1, SVG Export Plug-In . SVG Version: 6.00 Build 0)  -->
<!DOCTYPE svg PUBLIC "-//W3C//DTD SVG 1.1//EN" "http://www.w3.org/Graphics/SVG/1.1/DTD/svg11.dtd" [
	<!ENTITY ns_extend "http://ns.adobe.com/Extensibility/1.0/">
	<!ENTITY ns_ai "http://ns.adobe.com/AdobeIllustrator/10.0/">
	<!ENTITY ns_graphs "http://ns.adobe.com/Graphs/1.0/">
	<!ENTITY ns_vars "http://ns.adobe.com/Variables/1.0/">
	<!ENTITY ns_imrep "http://ns.adobe.com/ImageReplacement/1.0/">
	<!ENTITY ns_sfw "http://ns.adobe.com/SaveForWeb/1.0/">
	<!ENTITY ns_custom "http://ns.adobe.com/GenericCustomNamespace/1.0/">
	<!ENTITY ns_adobe_xpath "http://ns.adobe.com/XPath/1.0/">
]>
<svg version="1.1" id="Layer_1" xmlns:x="&ns_extend;" xmlns:i="&ns_ai;" xmlns:graph="&ns_graphs;"
	 xmlns="http://www.w3.org/2000/svg" xmlns:xlink="http://www.w3.org/1999/xlink" x="0px" y="0px" viewBox="0 0 24 24"
	 style="enable-background:new 0 0 24 24;" xml:space="preserve">
<style type="text/css">
	.st0{fill:none;}
	.st1{fill:#DD1D44;}
</style>
<metadata>
	<sfw  xmlns="&ns_sfw;">
		<slices></slices>
		<sliceSourceBounds  bottomLeftOrigin="true" height="58.8" width="94.2" x="-70.2" y="0"></sliceSourceBounds>
	</sfw>
</metadata>
<g>
	<rect class="st0" width="24" height="24"/>
	<path class="st1" d="M17,4l4,4l-4,4V9h-4V7h4V4z M10,7C9.4,7,9,7.4,9,8s0.4,1,1,1s1-0.4,1-1S10.6,7,10,7z M6,7C5.4,7,5,7.4,5,8
		s0.4,1,1,1s1-0.4,1-1S6.6,7,6,7z M7,17h4v-2H7v-3l-4,4l4,4V17z M14,17c0.6,0,1-0.5,1-1c0-0.6-0.4-1-1-1s-1,0.4-1,1
		C13,16.5,13.4,17,14,17z M18,17c0.5,0,1-0.5,1-1c0-0.6-0.5-1-1-1s-1,0.4-1,1C17,16.5,17.5,17,18,17z"/>
</g>
<path class="st0" d="M-70.2-34.8h24v24h-24V-34.8z"/>
</svg>
