<?xml version="1.0" encoding="utf-8"?>
<!-- Generator: Adobe Illustrator 25.2.1, SVG Export Plug-In . SVG Version: 6.00 Build 0)  -->
<!DOCTYPE svg PUBLIC "-//W3C//DTD SVG 1.1//EN" "http://www.w3.org/Graphics/SVG/1.1/DTD/svg11.dtd" [
	<!ENTITY ns_extend "http://ns.adobe.com/Extensibility/1.0/">
	<!ENTITY ns_ai "http://ns.adobe.com/AdobeIllustrator/10.0/">
	<!ENTITY ns_graphs "http://ns.adobe.com/Graphs/1.0/">
	<!ENTITY ns_vars "http://ns.adobe.com/Variables/1.0/">
	<!ENTITY ns_imrep "http://ns.adobe.com/ImageReplacement/1.0/">
	<!ENTITY ns_sfw "http://ns.adobe.com/SaveForWeb/1.0/">
	<!ENTITY ns_custom "http://ns.adobe.com/GenericCustomNamespace/1.0/">
	<!ENTITY ns_adobe_xpath "http://ns.adobe.com/XPath/1.0/">
]>
<svg version="1.1" id="Layer_1" xmlns:x="&ns_extend;" xmlns:i="&ns_ai;" xmlns:graph="&ns_graphs;"
	 xmlns="http://www.w3.org/2000/svg" xmlns:xlink="http://www.w3.org/1999/xlink" x="0px" y="0px" viewBox="0 0 24 24"
	 style="enable-background:new 0 0 24 24;" xml:space="preserve">
<style type="text/css">
	.st0{fill:none;}
	.st1{fill:#DD1D44;}
</style>
<metadata>
	<sfw  xmlns="&ns_sfw;">
		<slices></slices>
		<sliceSourceBounds  bottomLeftOrigin="true" height="24" width="24" x="0" y="0"></sliceSourceBounds>
	</sfw>
</metadata>
<g>
	<rect class="st0" width="24" height="24"/>
</g>
<g>
	<g>
		<path class="st1" d="M6,4c-2.4,1.8-4,4.7-4,8c0,1.5,0.3,2.9,0.9,4.1L6,14.3V4z"/>
		<path class="st1" d="M11,11.4V2C9.9,2.2,8.9,2.4,8,2.8v10.3L11,11.4z"/>
		<path class="st1" d="M12,13.1l-8.1,4.7c0.6,0.8,1.3,1.6,2.2,2.2l8.9-5.1L12,13.1z"/>
		<path class="st1" d="M13,8v3.5l8.1,4.7c0.4-0.9,0.7-1.9,0.8-3L13,8z"/>
		<path class="st1" d="M8.1,21.2C9.3,21.7,10.6,22,12,22c3.3,0,6.3-1.6,8.1-4.2L17,16L8.1,21.2z"/>
		<path class="st1" d="M21.9,10.8c-0.5-4.6-4.3-8.3-8.9-8.8v3.6L21.9,10.8z"/>
	</g>
</g>
</svg>
