<?xml version="1.0" encoding="utf-8"?>
<!-- Generator: Adobe Illustrator 25.2.1, SVG Export Plug-In . SVG Version: 6.00 Build 0)  -->
<!DOCTYPE svg PUBLIC "-//W3C//DTD SVG 1.1//EN" "http://www.w3.org/Graphics/SVG/1.1/DTD/svg11.dtd" [
	<!ENTITY ns_extend "http://ns.adobe.com/Extensibility/1.0/">
	<!ENTITY ns_ai "http://ns.adobe.com/AdobeIllustrator/10.0/">
	<!ENTITY ns_graphs "http://ns.adobe.com/Graphs/1.0/">
	<!ENTITY ns_vars "http://ns.adobe.com/Variables/1.0/">
	<!ENTITY ns_imrep "http://ns.adobe.com/ImageReplacement/1.0/">
	<!ENTITY ns_sfw "http://ns.adobe.com/SaveForWeb/1.0/">
	<!ENTITY ns_custom "http://ns.adobe.com/GenericCustomNamespace/1.0/">
	<!ENTITY ns_adobe_xpath "http://ns.adobe.com/XPath/1.0/">
]>
<svg version="1.1" id="Layer_1" xmlns:x="&ns_extend;" xmlns:i="&ns_ai;" xmlns:graph="&ns_graphs;"
	 xmlns="http://www.w3.org/2000/svg" xmlns:xlink="http://www.w3.org/1999/xlink" x="0px" y="0px" viewBox="0 0 24 24"
	 style="enable-background:new 0 0 24 24;" xml:space="preserve">
<style type="text/css">
	.st0{fill:none;}
	.st1{fill:#DD1D44;}
</style>
<metadata>
	<sfw  xmlns="&ns_sfw;">
		<slices></slices>
		<sliceSourceBounds  bottomLeftOrigin="true" height="24" width="24" x="0" y="0"></sliceSourceBounds>
	</sfw>
</metadata>
<g>
	<rect class="st0" width="24" height="24"/>
</g>
<g>
	<g>
		<g>
			<path class="st1" d="M17.1,11H22c-0.2-1.6-0.7-3.1-1.5-4.4C18.7,7.4,17.4,9.1,17.1,11z"/>
		</g>
		<g>
			<path class="st1" d="M6.9,11C6.6,9.1,5.3,7.4,3.6,6.6C2.8,7.9,2.2,9.4,2,11H6.9z"/>
		</g>
		<g>
			<path class="st1" d="M15.1,11c0.3-2.6,1.9-4.8,4.1-6c-1.6-1.6-3.7-2.7-6.1-3V11H15.1z"/>
		</g>
		<g>
			<path class="st1" d="M8.9,11H11V2C8.6,2.3,6.5,3.4,4.9,5C7.1,6.2,8.6,8.4,8.9,11z"/>
		</g>
		<g>
			<path class="st1" d="M15.1,13H13v9c2.4-0.2,4.5-1.3,6.1-3C17,17.8,15.4,15.6,15.1,13z"/>
		</g>
		<g>
			<path class="st1" d="M3.6,17.4c1.7-0.8,3-2.5,3.3-4.4H2C2.2,14.6,2.8,16.1,3.6,17.4z"/>
		</g>
		<g>
			<path class="st1" d="M17.1,13c0.3,1.9,1.6,3.6,3.3,4.4c0.8-1.3,1.4-2.8,1.5-4.4H17.1z"/>
		</g>
		<g>
			<path class="st1" d="M8.9,13c-0.3,2.6-1.9,4.8-4.1,6c1.6,1.6,3.7,2.7,6.1,3v-9H8.9z"/>
		</g>
	</g>
</g>
</svg>
