<?xml version="1.0" encoding="utf-8"?>
<!-- Generator: Adobe Illustrator 25.2.1, SVG Export Plug-In . SVG Version: 6.00 Build 0)  -->
<!DOCTYPE svg PUBLIC "-//W3C//DTD SVG 1.1//EN" "http://www.w3.org/Graphics/SVG/1.1/DTD/svg11.dtd" [
	<!ENTITY ns_extend "http://ns.adobe.com/Extensibility/1.0/">
	<!ENTITY ns_ai "http://ns.adobe.com/AdobeIllustrator/10.0/">
	<!ENTITY ns_graphs "http://ns.adobe.com/Graphs/1.0/">
	<!ENTITY ns_vars "http://ns.adobe.com/Variables/1.0/">
	<!ENTITY ns_imrep "http://ns.adobe.com/ImageReplacement/1.0/">
	<!ENTITY ns_sfw "http://ns.adobe.com/SaveForWeb/1.0/">
	<!ENTITY ns_custom "http://ns.adobe.com/GenericCustomNamespace/1.0/">
	<!ENTITY ns_adobe_xpath "http://ns.adobe.com/XPath/1.0/">
]>
<svg version="1.1" id="Layer_1" xmlns:x="&ns_extend;" xmlns:i="&ns_ai;" xmlns:graph="&ns_graphs;"
	 xmlns="http://www.w3.org/2000/svg" xmlns:xlink="http://www.w3.org/1999/xlink" x="0px" y="0px" viewBox="0 0 24 24"
	 style="enable-background:new 0 0 24 24;" xml:space="preserve">
<style type="text/css">
	.st0{fill:none;}
	.st1{fill:#DD1D44;}
</style>
<metadata>
	<sfw  xmlns="&ns_sfw;">
		<slices></slices>
		<sliceSourceBounds  bottomLeftOrigin="true" height="24" width="24" x="0" y="0"></sliceSourceBounds>
	</sfw>
</metadata>
<g>
	<rect class="st0" width="24" height="24"/>
</g>
<g>
	<g>
		<path class="st1" d="M12,2C6.5,2,2,6.5,2,12s4.5,10,10,10s10-4.5,10-10S17.5,2,12,2z M13,5.3l1.4-0.9c1.8,0.6,3.4,1.8,4.4,3.3
			L18.3,9L17,9.5l-4-2.8V5.3z M9.6,4.3l1.4,1v1.4L7,9.5L5.7,9L5.3,7.7C6.3,6.1,7.8,4.9,9.6,4.3z M7.1,17.1l-1.1,0.1
			C4.7,15.8,4,14,4,12c0-0.1,0-0.2,0-0.4l1-0.7l1.4,0.5l1.5,4.3L7.1,17.1z M14.5,19.6C13.7,19.9,12.9,20,12,20s-1.7-0.1-2.5-0.4
			l-0.7-1.5L9.4,17h5.1l0.6,1.1L14.5,19.6z M14.3,15H9.7l-1.4-4L12,8.4l3.6,2.5L14.3,15z M18.1,17.2l-1.1-0.1l-0.8-1.4l1.5-4.3
			l1.4-0.5l1,0.7c0,0.1,0,0.2,0,0.3C20,14,19.3,15.8,18.1,17.2z"/>
	</g>
</g>
</svg>
