<?xml version="1.0" encoding="utf-8"?>
<!-- Generator: Adobe Illustrator 25.2.1, SVG Export Plug-In . SVG Version: 6.00 Build 0)  -->
<!DOCTYPE svg PUBLIC "-//W3C//DTD SVG 1.1//EN" "http://www.w3.org/Graphics/SVG/1.1/DTD/svg11.dtd" [
	<!ENTITY ns_extend "http://ns.adobe.com/Extensibility/1.0/">
	<!ENTITY ns_ai "http://ns.adobe.com/AdobeIllustrator/10.0/">
	<!ENTITY ns_graphs "http://ns.adobe.com/Graphs/1.0/">
	<!ENTITY ns_vars "http://ns.adobe.com/Variables/1.0/">
	<!ENTITY ns_imrep "http://ns.adobe.com/ImageReplacement/1.0/">
	<!ENTITY ns_sfw "http://ns.adobe.com/SaveForWeb/1.0/">
	<!ENTITY ns_custom "http://ns.adobe.com/GenericCustomNamespace/1.0/">
	<!ENTITY ns_adobe_xpath "http://ns.adobe.com/XPath/1.0/">
]>
<svg version="1.1" id="Layer_1" xmlns:x="&ns_extend;" xmlns:i="&ns_ai;" xmlns:graph="&ns_graphs;"
	 xmlns="http://www.w3.org/2000/svg" xmlns:xlink="http://www.w3.org/1999/xlink" x="0px" y="0px" viewBox="0 0 24 24"
	 style="enable-background:new 0 0 24 24;" xml:space="preserve">
<style type="text/css">
	.st0{fill:none;}
	.st1{fill:#DD1D44;}
</style>
<metadata>
	<sfw  xmlns="&ns_sfw;">
		<slices></slices>
		<sliceSourceBounds  bottomLeftOrigin="true" height="24" width="24" x="0" y="0"></sliceSourceBounds>
	</sfw>
</metadata>
<g>
	<rect class="st0" width="24" height="24"/>
</g>
<g>
	<path class="st1" d="M19.5,2.5c-2.3-2.3-6.6-1.9-9.6,1.1C8.4,5.2,7.5,7.4,7.4,9c0,1.6,0.3,3.9-1.3,5.5l-4.2,4.2l1.4,1.4l4.2-4.2
		c1.6-1.6,3.9-1.3,5.5-1.4s3.9-0.9,5.5-2.5C21.4,9.1,21.9,4.8,19.5,2.5z M10.3,11.7C8.8,10.2,9.3,7.1,11.4,5s5.2-2.6,6.7-1.1
		c1.5,1.5,1,4.6-1.1,6.7S11.9,13.2,10.3,11.7z"/>
	<path class="st1" d="M18,17c0.5,0,1,0.2,1.4,0.6c0.8,0.8,0.8,2,0,2.8C19,20.8,18.5,21,18,21s-1-0.2-1.4-0.6c-0.8-0.8-0.8-2,0-2.8
		C17,17.2,17.5,17,18,17 M18,15c-1,0-2.1,0.4-2.8,1.2c-1.6,1.6-1.6,4.1,0,5.7C15.9,22.6,17,23,18,23s2-0.4,2.8-1.2
		c1.6-1.6,1.6-4.1,0-5.7C20,15.4,19,15,18,15L18,15z"/>
</g>
</svg>
